<?xml version="1.0" standalone="no"?>
<!DOCTYPE svg PUBLIC "-//W3C//DTD SVG 20010904//EN"
 "http://www.w3.org/TR/2001/REC-SVG-20010904/DTD/svg10.dtd">
<svg version="1.0" xmlns="http://www.w3.org/2000/svg"
 width="616.000000pt" height="741.000000pt" viewBox="0 0 616.000000 741.000000"
 preserveAspectRatio="xMidYMid meet">

<g transform="translate(0.000000,741.000000) scale(0.100000,-0.100000)"
fill="#000000" stroke="none">
<path d="M3750 6936 c0 -2 8 -10 18 -17 15 -13 16 -12 3 4 -13 16 -21 21 -21
13z"/>
<path d="M3780 6896 c0 -2 8 -10 18 -17 15 -13 16 -12 3 4 -13 16 -21 21 -21
13z"/>
<path d="M3832 6814 c10 -10 20 -16 22 -13 3 3 -5 11 -17 18 -21 13 -21 12 -5
-5z"/>
<path d="M3890 6785 c14 -8 30 -14 35 -14 6 0 -1 6 -15 14 -14 8 -29 14 -35
14 -5 0 1 -6 15 -14z"/>
<path d="M2615 6743 c-25 -134 -95 -291 -170 -378 l-34 -40 -1 118 c0 66 -4
117 -9 117 -6 0 -9 -51 -8 -122 l2 -123 -45 -65 -45 -65 2 -110 c2 -122 23
-232 59 -314 37 -82 39 -55 4 45 -38 108 -48 221 -30 320 16 86 34 122 104
208 67 81 97 131 132 217 29 71 66 229 54 229 -4 0 -11 -17 -15 -37z m-290
-618 c-13 -68 -13 -68 -14 -23 -1 38 16 106 24 96 1 -2 -3 -34 -10 -73z"/>
<path d="M3822 6750 c0 -14 2 -19 5 -12 2 6 2 18 0 25 -3 6 -5 1 -5 -13z"/>
<path d="M2396 6633 c-6 -14 -5 -15 5 -6 7 7 10 15 7 18 -3 3 -9 -2 -12 -12z"/>
<path d="M3918 6542 l-3 -82 -40 37 c-23 21 -51 52 -63 68 -19 25 -21 26 -11
5 6 -14 34 -48 60 -77 l49 -52 0 -88 c0 -142 0 -140 -158 -329 -93 -111 -166
-245 -182 -334 -5 -30 -12 -99 -14 -153 -4 -88 -3 -98 15 -107 18 -10 19 -6
19 122 0 115 4 142 25 201 32 92 73 158 178 285 107 132 187 248 187 276 0 12
-10 0 -26 -32 -14 -29 -30 -52 -35 -52 -6 0 -7 5 -4 11 11 16 23 341 14 364
-4 13 -9 -11 -11 -63z"/>
<path d="M1869 6519 c36 -39 49 -58 40 -62 -10 -4 -9 -6 4 -6 15 -1 17 -13 17
-116 0 -103 2 -115 18 -114 10 0 12 3 5 6 -9 3 -13 35 -13 108 l0 103 41 -15
c23 -7 44 -12 46 -9 3 3 -13 10 -36 16 -22 6 -46 18 -54 28 -7 9 -37 39 -67
67 l-55 50 54 -56z"/>
<path d="M3006 6557 c3 -10 9 -15 12 -12 3 3 0 11 -7 18 -10 9 -11 8 -5 -6z"/>
<path d="M4305 6540 c11 -14 44 -51 74 -82 42 -44 51 -58 37 -58 -30 0 -13 -9
25 -14 19 -3 56 -14 82 -25 26 -11 45 -17 42 -12 -3 6 -30 19 -61 31 -66 24
-86 42 -78 67 4 13 3 14 -3 5 -8 -10 -25 2 -74 50 -35 35 -55 52 -44 38z"/>
<path d="M3021 6525 c0 -5 6 -21 14 -35 8 -14 14 -20 14 -15 0 6 -6 21 -14 35
-8 14 -14 21 -14 15z"/>
<path d="M3061 6435 c0 -5 6 -21 14 -35 8 -14 14 -20 14 -15 0 6 -6 21 -14 35
-8 14 -14 21 -14 15z"/>
<path d="M3259 6403 c-13 -16 -12 -17 4 -4 9 7 17 15 17 17 0 8 -8 3 -21 -13z"/>
<path d="M2050 6401 c24 -14 66 -25 55 -13 -5 5 -23 12 -40 16 -20 4 -25 3
-15 -3z"/>
<path d="M3090 6366 c0 -5 11 -28 25 -51 13 -23 21 -45 18 -49 -3 -3 4 -6 16
-6 18 0 21 -4 16 -22 -4 -15 -3 -18 3 -10 6 9 31 0 105 -38 53 -28 99 -56 102
-61 4 -5 11 -9 17 -9 7 0 6 6 -2 15 -10 12 -9 15 6 16 16 0 15 2 -4 10 -13 5
-28 7 -32 4 -5 -3 -10 -2 -12 2 -1 5 -39 26 -83 48 -68 34 -80 44 -79 64 1 21
-1 22 -11 8 -11 -15 -14 -14 -32 6 -11 12 -28 36 -36 52 -9 17 -16 26 -17 21z"/>
<path d="M4433 6235 c0 -33 2 -45 4 -27 2 18 2 45 0 60 -2 15 -4 0 -4 -33z"/>
<path d="M3053 6253 c15 -2 37 -2 50 0 12 2 0 4 -28 4 -27 0 -38 -2 -22 -4z"/>
<path d="M2973 6243 c9 -2 23 -2 30 0 6 3 -1 5 -18 5 -16 0 -22 -2 -12 -5z"/>
<path d="M3151 6184 c0 -11 3 -14 6 -6 3 7 2 16 -1 19 -3 4 -6 -2 -5 -13z"/>
<path d="M2076 6153 c-2 -10 -8 -39 -12 -66 -3 -26 -10 -50 -15 -52 -4 -3 -15
19 -24 50 -9 30 -21 55 -26 55 -12 0 -11 -17 5 -70 53 -174 171 -385 284 -512
28 -30 39 -49 28 -45 -73 28 -231 58 -214 41 4 -3 52 -19 109 -35 150 -44 282
-101 410 -180 150 -91 203 -139 279 -251 35 -51 85 -122 111 -158 26 -36 79
-128 119 -205 39 -77 89 -162 110 -190 21 -27 37 -51 36 -53 -2 -2 -37 18 -78
43 -90 55 -189 90 -304 107 -71 10 -89 16 -101 35 -28 43 -92 242 -119 370
-24 115 -43 179 -44 146 0 -7 14 -78 30 -157 28 -134 61 -242 104 -339 l17
-38 -98 7 c-54 3 -140 17 -191 30 -99 26 -132 30 -116 15 19 -19 202 -60 294
-66 52 -4 103 -9 113 -12 10 -2 33 -36 52 -74 66 -129 144 -237 265 -365 33
-35 60 -66 60 -68 0 -3 -26 11 -57 30 -74 44 -162 71 -274 84 -49 5 -130 15
-179 20 -50 6 -115 20 -145 31 -65 24 -157 104 -187 163 -12 23 -23 35 -26 28
-7 -21 68 -122 118 -158 83 -61 124 -72 407 -104 172 -19 296 -75 401 -180 44
-44 68 -83 125 -200 38 -80 110 -207 159 -282 97 -150 138 -230 137 -268 0
-20 -6 -12 -30 34 -69 133 -151 219 -335 350 -245 175 -362 218 -637 232 -138
7 -139 7 -196 44 -132 86 -268 245 -307 362 -9 29 -18 77 -18 105 -1 35 -5 53
-13 53 -7 0 -13 -10 -13 -22 1 -47 29 -157 54 -206 53 -104 189 -252 286 -311
l35 -21 -105 0 c-269 1 -423 87 -526 295 -44 89 -71 197 -59 235 3 11 0 20
-10 24 -12 4 -15 -3 -15 -37 1 -109 49 -242 125 -341 20 -27 35 -50 33 -52 -6
-6 -258 146 -318 192 -63 48 -139 139 -181 217 -40 76 -50 67 -11 -10 41 -80
116 -177 163 -210 21 -16 39 -31 39 -35 0 -5 -23 -8 -52 -8 -28 0 -101 -7
-162 -16 -78 -11 -130 -13 -176 -7 l-65 8 -5 80 c-4 67 -7 74 -13 45 -4 -19
-8 -54 -9 -77 l-3 -42 -41 18 c-88 40 -155 120 -206 246 -19 45 -26 58 -22 35
3 -19 22 -68 41 -109 43 -91 113 -163 181 -187 l48 -17 11 -69 c12 -77 70
-218 90 -218 8 0 1 23 -21 68 -38 75 -56 132 -56 177 l0 31 76 -7 c51 -5 108
-3 172 7 52 8 130 14 173 14 l77 0 115 -68 c121 -72 318 -165 402 -189 35 -10
138 -17 335 -23 307 -9 374 -18 505 -70 73 -29 169 -80 163 -86 -2 -2 -35 7
-73 19 -62 20 -91 22 -255 22 -102 -1 -216 -7 -255 -13 -209 -37 -371 -33
-507 13 -83 28 -103 25 -34 -5 113 -51 286 -63 491 -35 160 22 367 30 452 16
110 -17 236 -67 334 -133 193 -129 298 -297 362 -575 22 -98 22 -101 22 -1098
0 -846 -3 -1040 -18 -1260 -20 -300 -35 -496 -43 -542 -4 -28 -2 -33 15 -33
24 0 24 6 51 435 33 517 42 956 35 1645 -6 637 -13 791 -41 904 -8 34 -19 103
-24 154 -9 83 -7 100 10 153 46 134 36 344 -26 562 -60 212 -43 362 60 538 39
66 61 89 163 171 65 52 159 122 208 156 138 93 237 198 320 340 51 88 79 117
185 195 170 126 235 214 261 352 13 73 6 343 -11 398 -17 56 -23 39 -8 -24 8
-32 13 -117 12 -209 -1 -265 -37 -331 -288 -520 -54 -41 -103 -82 -110 -92
-18 -30 -23 -20 -15 35 8 56 12 203 5 196 -3 -2 -9 -66 -16 -143 -8 -104 -16
-148 -32 -179 -35 -70 -152 -209 -224 -266 -101 -80 -101 -80 -67 -31 49 72
63 136 63 282 l0 128 37 42 c20 24 57 64 82 91 30 31 40 47 29 47 -9 0 -48
-35 -87 -77 -52 -58 -71 -73 -71 -58 0 11 -22 99 -50 195 -27 96 -50 183 -50
192 0 10 -5 18 -10 18 -12 0 -12 -3 51 -235 27 -99 49 -185 49 -192 0 -6 -33
-47 -72 -90 -84 -91 -219 -286 -271 -388 -44 -88 -64 -147 -77 -228 -5 -35
-24 -89 -41 -121 -18 -32 -42 -87 -54 -123 -13 -35 -25 -61 -28 -56 -3 5 -9
63 -12 128 -9 143 6 281 39 376 28 81 18 118 -13 46 -55 -128 -71 -385 -37
-587 19 -111 19 -110 7 -110 -8 0 -158 183 -222 270 -68 93 -170 251 -198 307
-73 146 -104 342 -81 509 17 122 42 182 109 267 106 134 114 149 119 239 3 59
2 79 -7 74 -6 -4 -11 -33 -11 -65 0 -40 -7 -71 -23 -102 -27 -54 -138 -198
-152 -199 -6 0 -11 -8 -12 -17 -1 -10 -12 -52 -24 -93 -20 -64 -23 -99 -23
-246 l-1 -171 -41 53 c-22 29 -56 75 -74 103 l-32 51 15 63 c9 34 19 111 22
172 6 121 -5 479 -14 469 -3 -3 -6 -137 -6 -297 0 -222 -3 -300 -14 -324 -7
-18 -15 -33 -18 -33 -3 0 -30 23 -61 51 -75 66 -165 125 -314 204 -91 48 -140
82 -186 128 -98 96 -220 287 -252 395 -11 34 -11 58 0 128 11 78 9 122 -4 77z
m2068 -1087 c-11 -150 -52 -217 -202 -333 -48 -37 -115 -91 -150 -121 -71 -62
-72 -61 -30 63 51 150 199 385 327 518 l46 48 8 -48 c4 -26 5 -84 1 -127z
m-1224 -461 c103 -20 125 -27 205 -67 136 -69 224 -152 379 -355 90 -119 146
-283 168 -488 11 -106 1 -265 -18 -296 -3 -6 -18 8 -32 29 -15 22 -60 87 -100
144 -40 56 -104 166 -141 243 -81 166 -134 241 -276 395 -126 137 -234 290
-277 393 -9 21 -4 21 92 2z"/>
<path d="M3132 6080 c0 -14 2 -19 5 -12 2 6 2 18 0 25 -3 6 -5 1 -5 -13z"/>
<path d="M4084 5923 c-191 -183 -246 -249 -304 -363 -48 -95 -83 -210 -65
-210 7 0 26 39 44 88 59 166 103 227 314 436 105 104 205 195 222 202 l30 13
-33 1 c-29 0 -53 -20 -208 -167z"/>
<path d="M3120 5964 c0 -19 4 -33 8 -30 8 5 4 66 -4 66 -2 0 -4 -16 -4 -36z"/>
<path d="M1772 5855 c21 -22 39 -37 41 -34 2 2 -15 19 -37 38 l-41 35 37 -39z"/>
<path d="M3391 5857 c-12 -15 -10 -32 9 -124 20 -95 46 -182 79 -265 7 -18 16
-26 25 -22 12 5 10 14 -8 57 -29 66 -65 199 -80 296 -10 65 -13 72 -25 58z"/>
<path d="M4359 5835 c31 -46 64 -84 52 -60 -6 11 -25 36 -42 55 -26 30 -28 30
-10 5z"/>
<path d="M2595 5770 c10 -11 20 -20 23 -20 3 0 -3 9 -13 20 -10 11 -20 20 -23
20 -3 0 3 -9 13 -20z"/>
<path d="M1822 5760 c0 -14 2 -19 5 -12 2 6 2 18 0 25 -3 6 -5 1 -5 -13z"/>
<path d="M4417 5734 c-3 -3 -3 -13 0 -21 4 -11 8 -12 14 -2 6 10 13 8 34 -5
15 -10 24 -13 21 -7 -10 15 -62 42 -69 35z"/>
<path d="M2680 5676 c0 -2 7 -7 16 -10 8 -3 12 -2 9 4 -6 10 -25 14 -25 6z"/>
<path d="M1431 5555 c-31 -132 -45 -165 -70 -165 -12 0 -21 5 -21 10 0 6 -5
10 -11 10 -8 0 -8 -5 1 -15 7 -8 18 -15 25 -15 8 0 14 -34 18 -117 7 -136 45
-291 103 -410 37 -78 142 -202 154 -183 4 7 -14 33 -42 62 -32 33 -65 84 -98
151 -102 212 -121 403 -61 617 17 63 30 124 29 135 -2 11 -14 -25 -27 -80z"/>
<path d="M2611 5574 c0 -11 3 -14 6 -6 3 7 2 16 -1 19 -3 4 -6 -2 -5 -13z"/>
<path d="M837 5348 c5 -7 31 -41 57 -75 l47 -63 -28 -1 c-27 -2 -27 -2 -3 -6
44 -7 175 -46 185 -55 12 -11 28 -10 20 1 -3 6 -39 20 -80 32 -44 13 -75 28
-75 36 0 7 -6 13 -13 13 -7 0 -35 29 -61 65 -26 36 -50 65 -53 65 -3 0 -1 -6
4 -12z"/>
<path d="M3435 5271 c22 -23 54 -52 70 -63 35 -25 21 -10 -55 58 l-55 48 40
-43z"/>
<path d="M963 5130 c0 -30 2 -43 4 -27 2 15 2 39 0 55 -2 15 -4 2 -4 -28z"/>
<path d="M1931 5165 c0 -5 8 -26 19 -45 11 -19 19 -30 19 -25 0 6 -8 26 -19
45 -11 19 -19 31 -19 25z"/>
<path d="M3566 5135 c4 -8 10 -15 14 -15 5 0 11 -8 13 -17 4 -16 5 -16 6 -1 1
13 9 16 39 13 30 -4 28 -2 -10 6 -27 6 -48 15 -48 20 0 5 -4 9 -10 9 -5 0 -7
-7 -4 -15z"/>
<path d="M3698 5103 c6 -2 18 -2 25 0 6 3 1 5 -13 5 -14 0 -19 -2 -12 -5z"/>
<path d="M1971 5076 c-1 -4 17 -47 39 -94 31 -66 37 -88 28 -95 -9 -6 -6 -7 9
-4 12 3 23 2 25 -2 2 -4 50 -31 108 -60 58 -29 112 -57 120 -63 8 -6 3 0 -11
13 -35 32 -52 43 -129 83 -36 18 -66 40 -68 48 -1 8 9 32 24 54 20 29 22 35 6
21 -11 -10 -26 -32 -32 -48 -13 -30 -34 -42 -23 -12 4 11 3 14 -5 9 -8 -5 -25
20 -51 76 -22 46 -40 79 -40 74z"/>
<path d="M4885 5074 c-11 -3 -53 -12 -93 -20 -40 -9 -70 -19 -67 -23 2 -5 37
-1 77 7 40 8 129 15 198 15 136 1 214 -14 301 -59 54 -27 69 -30 69 -11 0 6
-15 17 -32 24 -188 68 -179 66 -308 69 -69 2 -134 1 -145 -2z"/>
<path d="M3601 5054 c0 -11 3 -14 6 -6 3 7 2 16 -1 19 -3 4 -6 -2 -5 -13z"/>
<path d="M2164 5028 l-29 -33 33 29 c30 28 37 36 29 36 -2 0 -16 -15 -33 -32z"/>
<path d="M3603 4980 c0 -25 2 -35 4 -22 2 12 2 32 0 45 -2 12 -4 2 -4 -23z"/>
<path d="M3601 4904 c0 -11 3 -14 6 -6 3 7 2 16 -1 19 -3 4 -6 -2 -5 -13z"/>
<path d="M1963 4873 c9 -2 25 -2 35 0 9 3 1 5 -18 5 -19 0 -27 -2 -17 -5z"/>
<path d="M1903 4863 c9 -2 23 -2 30 0 6 3 -1 5 -18 5 -16 0 -22 -2 -12 -5z"/>
<path d="M2063 4805 c0 -33 2 -45 4 -27 2 18 2 45 0 60 -2 15 -4 0 -4 -33z"/>
<path d="M2318 4793 c7 -3 16 -2 19 1 4 3 -2 6 -13 5 -11 0 -14 -3 -6 -6z"/>
<path d="M2053 4675 c0 -22 2 -30 4 -17 2 12 2 30 0 40 -3 9 -5 -1 -4 -23z"/>
<path d="M4743 4586 c6 -18 138 -64 219 -77 111 -17 249 3 314 46 44 29 18 28
-53 -1 -60 -25 -81 -28 -173 -28 -95 0 -115 3 -208 36 -57 19 -101 31 -99 24z"/>
<path d="M926 3839 c7 -11 79 -49 94 -49 26 0 5 17 -45 37 -30 11 -52 17 -49
12z"/>
<path d="M1290 3815 c8 -10 42 -41 75 -68 57 -47 125 -121 125 -137 0 -4 -19
-10 -41 -14 -23 -4 -39 -9 -37 -12 3 -2 24 -1 46 4 39 9 41 9 45 -17 l4 -26 2
28 c0 15 2 27 4 27 2 0 52 -14 112 -30 59 -17 110 -28 113 -26 3 3 -1 7 -9 10
-8 2 -48 14 -89 26 -121 34 -144 44 -154 65 -5 11 -55 58 -110 104 -56 47 -94
77 -86 66z"/>
<path d="M771 3774 c0 -11 3 -14 6 -6 3 7 2 16 -1 19 -3 4 -6 -2 -5 -13z"/>
<path d="M1368 3573 c7 -3 16 -2 19 1 4 3 -2 6 -13 5 -11 0 -14 -3 -6 -6z"/>
<path d="M5630 3531 c-63 -3 -121 -10 -127 -14 -15 -10 -17 -53 -4 -62 5 -3
11 5 13 17 2 19 11 24 53 30 28 3 82 7 121 7 45 1 77 6 90 16 18 14 18 14 -6
13 -14 -1 -77 -4 -140 -7z"/>
<path d="M1772 3518 c7 -26 148 -85 251 -106 137 -28 167 -31 422 -42 140 -6
260 -16 331 -29 168 -31 178 -40 49 -41 -240 -1 -463 -48 -655 -137 -143 -66
-147 -67 -206 -38 -30 15 -75 50 -103 81 -28 31 -51 51 -51 44 0 -18 92 -110
137 -137 24 -14 43 -27 43 -29 0 -8 -103 -55 -174 -79 -163 -55 -390 -10 -539
107 -21 17 -40 28 -42 26 -7 -7 85 -73 140 -101 74 -37 180 -67 260 -73 96 -8
178 13 346 91 317 148 426 184 622 210 138 18 250 19 365 5 258 -33 442 -203
490 -453 9 -48 20 -87 25 -87 22 0 -17 171 -58 254 -68 137 -168 222 -352 297
-190 78 -344 106 -648 119 -327 14 -478 41 -607 106 -32 16 -49 21 -46 12z"/>
<path d="M1512 3413 c-1 -57 1 -103 6 -103 4 0 6 33 4 72 -4 125 -9 137 -10
31z"/>
<path d="M2559 3060 c-8 -5 -77 -21 -154 -36 -149 -28 -216 -48 -130 -38 76 9
283 52 301 62 9 5 13 12 8 15 -5 3 -16 2 -25 -3z"/>
<path d="M5213 3036 c2 -6 9 -11 15 -10 7 1 46 2 89 3 101 1 89 10 -21 14 -59
3 -85 0 -83 -7z"/>
<path d="M3897 1473 c-4 -7 -3 -57 3 -110 12 -107 14 -747 4 -1073 -5 -163 -4
-203 6 -193 10 9 13 149 13 625 0 575 -7 780 -26 751z"/>
<path d="M3954 1298 c14 -115 26 -399 20 -498 -4 -75 -2 -101 5 -90 14 19 14
255 0 430 -5 74 -11 152 -12 173 -1 20 -5 37 -11 37 -5 0 -6 -22 -2 -52z"/>
</g>
</svg>
