<svg version="1.1" id="Layer_1" xmlns="http://www.w3.org/2000/svg" xmlns:xlink="http://www.w3.org/1999/xlink" x="0px" y="0px"
	 width="100%" viewBox="0 0 500 500" enable-background="new 0 0 500 500" xml:space="preserve">
<path fill="#638889" opacity="1.000000" stroke="none" 
	d="
M215.868362,417.890594 
	C223.617111,411.925079 226.632721,403.798370 226.711777,394.933777 
	C227.039948,358.135345 226.948380,321.333191 227.010193,284.532379 
	C227.013474,282.577759 227.010620,280.623138 227.010620,278.543182 
	C218.902084,277.999176 211.275177,277.846680 203.743240,276.921356 
	C166.589111,272.356750 132.286850,261.139923 105.689110,233.062378 
	C89.495224,215.967560 79.835777,195.273819 77.326393,172.117676 
	C75.201439,152.508942 74.800529,132.596054 75.258224,112.855362 
	C75.793404,89.772934 66.587273,77.782951 43.205925,75.563179 
	C43.110111,74.174980 42.970337,72.726440 42.921043,71.274826 
	C42.870922,69.798828 42.909973,68.319801 42.909973,66.391403 
	C52.978283,65.344025 62.453583,66.835197 71.745163,69.243034 
	C101.694206,77.004089 122.021873,99.976311 125.914627,130.801270 
	C127.451431,142.970490 127.545731,155.322372 129.094971,167.489441 
	C132.282898,192.526123 139.975113,215.807785 158.004227,234.480713 
	C172.745178,249.748077 191.290619,256.523407 212.055832,257.952606 
	C216.822571,258.280670 221.631134,258.000977 226.707123,258.000977 
	C226.834991,256.083069 227.017044,254.632874 227.015991,253.182831 
	C226.984558,209.689346 226.974976,166.195770 226.835144,122.702591 
	C226.818634,117.566460 226.604935,112.321892 225.564545,107.318504 
	C222.406448,92.130806 211.829895,82.582642 196.188843,81.103455 
	C188.812439,80.405869 181.315399,80.983856 173.484100,80.983856 
	C173.484100,77.965973 173.484100,75.262581 173.484100,72.212387 
	C225.174713,72.212387 276.728088,72.212387 328.615875,72.212387 
	C328.615875,74.966675 328.615875,77.551888 328.615875,80.799011 
	C327.055908,80.687683 325.505676,80.593369 323.958344,80.464043 
	C311.273987,79.403954 299.044128,80.390739 288.200653,88.070671 
	C280.923462,93.224731 277.400940,100.588043 276.102966,109.055809 
	C275.350037,113.967651 275.166992,119.004539 275.154358,123.986244 
	C275.044769,167.146240 275.030212,210.306503 275.000458,253.466675 
	C274.999542,254.767563 275.141693,256.068542 275.240356,257.769348 
	C291.417236,259.012787 306.854370,257.073181 321.511200,250.322510 
	C343.594879,240.151184 356.935181,222.290924 365.135071,200.071228 
	C371.167725,183.724197 373.960571,166.821243 374.273865,149.362122 
	C374.537506,134.669662 376.888062,120.267426 383.444733,106.808662 
	C395.344666,82.382050 415.984222,70.844864 441.841064,67.049149 
	C447.225739,66.258682 452.715973,66.187256 458.658173,65.747414 
	C458.658173,69.412483 458.658173,72.430710 458.658173,75.587311 
	C455.181213,76.182556 451.718964,76.547546 448.376251,77.387932 
	C435.602539,80.599380 427.156219,91.321831 427.026123,104.727692 
	C426.874115,120.390366 427.364716,136.066925 426.898010,151.717224 
	C426.044586,180.336533 418.682404,206.870819 399.816284,229.232727 
	C383.778717,248.242020 363.118622,260.242706 339.773132,267.944153 
	C320.401672,274.334625 300.543884,278.011932 280.080902,278.043640 
	C278.610718,278.045898 277.140808,278.201050 274.998291,278.323578 
	C274.998291,280.281677 274.995270,282.048676 274.998749,283.815674 
	C275.059509,314.477722 275.109955,345.139832 275.190826,375.801819 
	C275.209167,382.764221 274.720795,389.798615 275.531281,396.674225 
	C277.465210,413.080658 286.938629,422.869537 303.617798,425.831329 
	C311.401581,427.213501 319.369568,427.558350 327.621490,428.411377 
	C327.621490,430.303986 327.621490,432.865784 327.621490,435.483887 
	C276.478455,435.483887 225.612152,435.483887 174.437775,435.483887 
	C174.437775,433.202179 174.437775,430.947845 174.437775,428.203888 
	C188.720490,427.176392 203.500717,427.877869 215.868362,417.890594 
z"/>
</svg>